# xmcd CD database file
#
# Track frame offsets:
#	182
#	12787
#	27000
#	39825
#	53000
#	66300
#	84987
#	103612
#	121325
#	144262
#	164625
#	182387
#	196512
#	214725
#	233475
#	250100
#	269125
#
# Disc length: 4056 seconds
#
# Revision: 0
# Processed by: cddbd v1.4PL0 Copyright (c) Steve Scherf et al.
# Submitted via: CDex 1.50beta9
#
DISCID=d50fd611
DTITLE=Lee Konitz - Sound Lee
DYEAR=1900
DGENRE=Jazz
TTITLE0=Progression
TTITLE1=Retrospection
TTITLE2=Subconscious - Lee
TTITLE3=Judy
TTITLE4=Tautology
TTITLE5=Sound - Lee
TTITLE6=Yesterdays
TTITLE7=Stephanie
TTITLE8=The Song Is You
TTITLE9=Somp'm Outa' Nothin'
TTITLE10=Uncharted
TTITLE11=Palo Alto
TTITLE12=I Didn't Know About You
TTITLE13=You're Clear Out of this World
TTITLE14=The more I see You
TTITLE15=You're Driving Me Crazy
TTITLE16=A Ballad for Lennie
EXTD=
EXTT0=
EXTT1=
EXTT2=
EXTT3=
EXTT4=
EXTT5=
EXTT6=
EXTT7=
EXTT8=
EXTT9=
EXTT10=
EXTT11=
EXTT12=
EXTT13=
EXTT14=
EXTT15=
EXTT16=
PLAYORDER=
